# xmcd
#
# Track frame offsets:
#	150
#	13940
#	30336
#	41650
#	62145
#	73333
#	84280
#	104491
#	118111
#	133921
#	145668
#
# Disc length: 2345 seconds
#
# Revision: 0
# Processed by: cddbd v1.5.2PL0 Copyright (c) Steve Scherf et al.
# Submitted via: dBpowerAMP V4.0
#
DISCID=9d09270b
DTITLE=Bob Wayne and The Outlaw Carnies - Blood To Dust
DYEAR=1900
DGENRE=Country
TTITLE0=Road Bound
TTITLE1=Ghost Town
TTITLE2=27 Years
TTITLE3=La Diabla
TTITLE4=Bride
TTITLE5=My Only Friend
TTITLE6=Blood To Dust
TTITLE7=Five In The Mornin'
TTITLE8=Darkness
TTITLE9=Work Of The Devil
TTITLE10=Cardboard Blues
EXTD=
EXTT0=
EXTT1=
EXTT2=
EXTT3=
EXTT4=
EXTT5=
EXTT6=
EXTT7=
EXTT8=
EXTT9=
EXTT10=
PLAYORDER=
